<svg xmlns="http://www.w3.org/2000/svg" viewBox="0 0 257.11 257.11"><g id="Layer_2" data-name="Layer 2"><g id="Layer_1-2" data-name="Layer 1"><path d="M95.21,193a11.79,11.79,0,0,1-11.76-11.77V81.92a11.76,11.76,0,0,1,17.63-10.18l86,49.66a11.76,11.76,0,0,1,0,20.37l-86,49.66A11.75,11.75,0,0,1,95.21,193Zm0-111.86a.77.77,0,0,0-.38.11.7.7,0,0,0-.38.65v99.33a.69.69,0,0,0,.38.65.67.67,0,0,0,.75,0l86-49.66a.75.75,0,0,0,0-1.31l-86-49.66A.67.67,0,0,0,95.21,81.16Z"/><path d="M189.56,257.11h-122A67.63,67.63,0,0,1,0,189.56v-122A67.64,67.64,0,0,1,67.56,0h122a67.63,67.63,0,0,1,67.55,67.56v122A67.62,67.62,0,0,1,189.56,257.11ZM67.56,10A57.62,57.62,0,0,0,10,67.56v122a57.62,57.62,0,0,0,57.56,57.55h122a57.62,57.62,0,0,0,57.55-57.55v-122A57.62,57.62,0,0,0,189.56,10Z"/></g></g></svg>