<svg xmlns="http://www.w3.org/2000/svg" viewBox="0 0 257.12 257.11"><g id="Layer_2" data-name="Layer 2"><g id="Layer_1-2" data-name="Layer 1"><path d="M216.56,49a11.45,11.45,0,1,1-11.45-11.45A11.45,11.45,0,0,1,216.56,49"/><path d="M128.56,209.22a77.14,77.14,0,1,1,77.13-77.13A77.22,77.22,0,0,1,128.56,209.22Zm0-142.27a65.14,65.14,0,1,0,65.13,65.14A65.21,65.21,0,0,0,128.56,67Z"/><path d="M189.56,257.11h-122A67.63,67.63,0,0,1,0,189.56v-122A67.64,67.64,0,0,1,67.56,0h122a67.64,67.64,0,0,1,67.56,67.56v122A67.63,67.63,0,0,1,189.56,257.11ZM67.56,10A57.62,57.62,0,0,0,10,67.56v122a57.62,57.62,0,0,0,57.56,57.55h122a57.62,57.62,0,0,0,57.56-57.55v-122A57.62,57.62,0,0,0,189.56,10Z"/></g></g></svg>