<svg xmlns="http://www.w3.org/2000/svg" viewBox="0 0 257.12 257.11"><g id="Layer_2" data-name="Layer 2"><g id="Layer_1-2" data-name="Layer 1"><path d="M136.82,141.79H105.09v-16.7h31.73v-21.2C136.82,83,149.88,72,174.17,72c4.17,0,13.18.74,17.36,2V92.42c-3.92-1.24-11.62-1.74-15.54-1.74-10.7,0-17,3.24-17,14.46v20h34.12v16.7H159V252h-22.2Z"/><path d="M189.56,257.11h-122A67.63,67.63,0,0,1,0,189.56v-122A67.64,67.64,0,0,1,67.56,0h122a67.64,67.64,0,0,1,67.56,67.56v122A67.63,67.63,0,0,1,189.56,257.11ZM67.56,10A57.62,57.62,0,0,0,10,67.56v122a57.62,57.62,0,0,0,57.56,57.55h122a57.62,57.62,0,0,0,57.56-57.55v-122A57.62,57.62,0,0,0,189.56,10Z"/></g></g></svg>